<?xml version="1.0" encoding="UTF-8" standalone="no"?>
<svg width="180" height="42" viewBox="0 0 180 42" fill="none" xmlns="http://www.w3.org/2000/svg" xmlns:xlink="http://www.w3.org/1999/xlink">
  <defs>
    <style type="text/css">
      @import url('https://fonts.googleapis.com/css2?family=Outfit:wght@500;800&amp;display=swap');
    </style>
  </defs>

  <g id="logo-icon" transform="translate(0, 0)">
    <path id="shield-bg" d="M21 2L5 8V18C5 28.1 11.8 37.3 21 40C30.2 37.3 37 28.1 37 18V8L21 2Z" fill="#2563eb" fill-opacity="0.1"/>
    <path id="shield-border" d="M21 2L5 8V18C5 28.1 11.8 37.3 21 40C30.2 37.3 37 28.1 37 18V8L21 2Z" stroke="#2563eb" stroke-width="2" stroke-linecap="round" stroke-linejoin="round"/>
    
    <path id="heart" d="M21 12.5C24.5 9 29.5 9 32.5 12C35.5 15 35.5 20 32.5 23C29.5 26 21 32 21 32C21 32 12.5 26 9.5 23C6.5 20 6.5 15 9.5 12C12.5 9 17.5 9 21 12.5Z" fill="#14b8a6"/>
    
    <path id="cross" d="M21 15V21M18 18H24" stroke="white" stroke-width="2" stroke-linecap="round" stroke-linejoin="round"/>
  </g>

  <g id="logo-text" transform="translate(50, 31)">
    <text font-family="'Outfit', sans-serif" font-size="26" font-weight="800" letter-spacing="-0.5" fill="#2563eb">Nurse</text>
    <text x="73" font-family="'Outfit', sans-serif" font-size="26" font-weight="500" letter-spacing="-0.5" fill="#14b8a6">Care</text>
  </g>
</svg>
